<svg width="35" height="35" viewBox="0 0 35 35" fill="none" xmlns="http://www.w3.org/2000/svg">
<g clip-path="url(#clip0_97_4)">
<path d="M19.9522 -1C22.0906 -0.996466 23.1742 -0.98516 24.1105 -0.957287L24.4793 -0.945221C24.9053 -0.930078 25.3256 -0.911077 25.8324 -0.887326C27.8542 -0.793919 29.2335 -0.474062 30.4448 -0.00379586C31.6971 0.479125 32.7549 1.13149 33.8109 2.18761C34.8655 3.24372 35.518 4.3046 36.0025 5.55389C36.471 6.76359 36.791 8.14431 36.886 10.1663C36.9086 10.673 36.9268 11.0933 36.9419 11.5194L36.9538 11.8881C36.9816 12.8244 36.9943 13.9081 36.9983 16.0465L36.9998 17.4633C37 17.6364 37 17.8151 37 17.9994L36.9998 18.5354L36.9987 19.9522C36.9951 22.0906 36.9839 23.1742 36.9559 24.1105L36.9438 24.4793C36.9287 24.9053 36.9097 25.3256 36.886 25.8324C36.7925 27.8542 36.471 29.2335 36.0025 30.4448C35.5195 31.6971 34.8655 32.7549 33.8109 33.8109C32.7549 34.8655 31.6924 35.518 30.4448 36.0025C29.2335 36.471 27.8542 36.791 25.8324 36.886C25.3256 36.9086 24.9053 36.9268 24.4793 36.9419L24.1105 36.9538C23.1742 36.9816 22.0906 36.9943 19.9522 36.9983L18.5354 36.9998C18.3623 37 18.1837 37 17.9994 37L17.4633 36.9998L16.0465 36.9987C13.9081 36.9951 12.8244 36.9839 11.8881 36.9559L11.5194 36.9438C11.0933 36.9287 10.673 36.9097 10.1663 36.886C8.14431 36.7925 6.76676 36.471 5.55389 36.0025C4.30301 35.5195 3.24372 34.8655 2.18761 33.8109C1.13149 32.7549 0.480721 31.6924 -0.00379586 30.4448C-0.474062 29.2335 -0.792323 27.8542 -0.887326 25.8324C-0.909899 25.3256 -0.92831 24.9053 -0.943226 24.4793L-0.955177 24.1105C-0.982975 23.1742 -0.995649 22.0906 -0.999753 19.9522L-1 16.0465C-0.996466 13.9081 -0.98516 12.8244 -0.957287 11.8881L-0.945221 11.5194C-0.930078 11.0933 -0.911077 10.673 -0.887326 10.1663C-0.793919 8.14273 -0.474062 6.76518 -0.00379586 5.55389C0.479125 4.30301 1.13149 3.24372 2.18761 2.18761C3.24372 1.13149 4.3046 0.480721 5.55389 -0.00379586C6.76518 -0.474062 8.14273 -0.792323 10.1663 -0.887326C10.673 -0.909899 11.0933 -0.92831 11.5194 -0.943226L11.8881 -0.955177C12.8244 -0.982975 13.9081 -0.995649 16.0465 -0.999753L19.9522 -1ZM17.9994 8.49899C12.7496 8.49899 8.49899 12.7542 8.49899 17.9994C8.49899 23.249 12.7542 27.4997 17.9994 27.4997C23.249 27.4997 27.4997 23.2443 27.4997 17.9994C27.4997 12.7496 23.2443 8.49899 17.9994 8.49899ZM17.9994 12.2991C21.1476 12.2991 23.6996 14.8502 23.6996 17.9994C23.6996 21.1476 21.1483 23.6996 17.9994 23.6996C14.8511 23.6996 12.2991 21.1483 12.2991 17.9994C12.2991 14.8511 14.8502 12.2991 17.9994 12.2991ZM27.9747 5.6489C26.665 5.6489 25.5996 6.71274 25.5996 8.02236C25.5996 9.33196 26.6635 10.3975 27.9747 10.3975C29.2842 10.3975 30.3498 9.33362 30.3498 8.02236C30.3498 6.71274 29.2825 5.64724 27.9747 5.6489Z" fill="#3A632F"/>
</g>
<defs>
<clipPath id="clip0_97_4">
<rect width="35" height="35" fill="white"/>
</clipPath>
</defs>
</svg>
