<svg width="35" height="35" viewBox="0 0 35 35" fill="none" xmlns="http://www.w3.org/2000/svg">
<path d="M32.3932 8.24853C31.2799 8.74101 30.0993 9.06446 28.8905 9.2082C30.164 8.44579 31.1171 7.24643 31.5719 5.83353C30.3752 6.54455 29.0653 7.04499 27.6993 7.31309C26.5462 6.08292 24.9346 5.38579 23.2485 5.3877C19.8809 5.3877 17.1496 8.11809 17.1496 11.4872C17.1496 11.9651 17.2044 12.4286 17.3069 12.8759C12.2361 12.6206 7.74386 10.1939 4.73489 6.50343C4.19314 7.43422 3.90841 8.49226 3.90986 9.56922C3.90986 11.6851 4.98692 13.5528 6.62301 14.6462C5.65451 14.6155 4.70733 14.354 3.86048 13.8831C3.85954 13.9087 3.85954 13.9343 3.85954 13.9585C3.85954 16.9145 5.96195 19.3802 8.75291 19.9401C8.22909 20.0818 7.68881 20.1534 7.14616 20.153C6.75205 20.153 6.36958 20.1167 5.99783 20.0454C6.77442 22.4679 9.02543 24.2316 11.6953 24.2801C9.53478 25.9757 6.86685 26.8956 4.12043 26.8916C3.63435 26.8921 3.14868 26.8633 2.66602 26.8059C5.45423 28.5983 8.69972 29.5496 12.0144 29.5461C23.2336 29.5461 29.3679 20.2527 29.3679 12.1934C29.3679 11.9297 29.3615 11.6651 29.3498 11.4042C30.5438 10.5416 31.5744 9.47297 32.3932 8.24853Z" fill="#3A632F"/>
</svg>
